<mxfile host="app.diagrams.net" modified="2024-06-20T22:15:57.330Z" agent="Mozilla/5.0 (Macintosh; Intel Mac OS X 10.15; rv:127.0) Gecko/20100101 Firefox/127.0" etag="st0Sub8bpXRWBhhHzRp6" version="24.6.0" type="device">
  <diagram name="Page-1" id="UpGBRjejw78-DODDlqbg">
    <mxGraphModel dx="2593" dy="1351" grid="1" gridSize="10" guides="1" tooltips="1" connect="1" arrows="1" fold="1" page="1" pageScale="1" pageWidth="850" pageHeight="1100" math="0" shadow="0">
      <root>
        <mxCell id="0" />
        <mxCell id="1" parent="0" />
        <mxCell id="jYvNrxx_Q23PW52PXkhU-1" value="&lt;div&gt;&lt;pre style=&quot;font-family:&#39;JetBrains Mono&#39;,monospace;font-size:9.8pt;&quot;&gt;&lt;font color=&quot;#f19c99&quot;&gt;&lt;span style=&quot;background-color: rgb(255, 255, 255);&quot;&gt;Dw6AXaRH66QKp3xx0P2Xx7vbhcaMDhGqDrnSJS5bwKVSnbmYx0P3Xx&lt;/span&gt;&lt;/font&gt;&lt;/pre&gt;&lt;/div&gt;" style="rounded=0;whiteSpace=wrap;html=1;" vertex="1" parent="1">
          <mxGeometry x="80" y="180" width="530" height="90" as="geometry" />
        </mxCell>
        <mxCell id="jYvNrxx_Q23PW52PXkhU-2" value="" style="endArrow=classic;html=1;rounded=0;exitX=0.5;exitY=1;exitDx=0;exitDy=0;" edge="1" parent="1" source="jYvNrxx_Q23PW52PXkhU-1">
          <mxGeometry width="50" height="50" relative="1" as="geometry">
            <mxPoint x="500" y="420" as="sourcePoint" />
            <mxPoint x="345" y="340" as="targetPoint" />
          </mxGeometry>
        </mxCell>
        <mxCell id="jYvNrxx_Q23PW52PXkhU-3" value="Valor encriptado inicial del ajuste" style="text;html=1;align=center;verticalAlign=middle;whiteSpace=wrap;rounded=0;" vertex="1" parent="1">
          <mxGeometry x="235" y="140" width="220" height="30" as="geometry" />
        </mxCell>
        <mxCell id="jYvNrxx_Q23PW52PXkhU-4" value="Eliminación de la codificación mediante expresiones regulares" style="text;html=1;align=center;verticalAlign=middle;whiteSpace=wrap;rounded=0;" vertex="1" parent="1">
          <mxGeometry x="360" y="290" width="260" height="40" as="geometry" />
        </mxCell>
        <mxCell id="jYvNrxx_Q23PW52PXkhU-5" value="Dw6AXaRH66QKp3x/7vbhcaMDhGqDrnSJS5bwKVSnbmY=" style="rounded=0;whiteSpace=wrap;html=1;" vertex="1" parent="1">
          <mxGeometry x="170" y="350" width="390" height="80" as="geometry" />
        </mxCell>
        <mxCell id="jYvNrxx_Q23PW52PXkhU-6" value="Decodificación Base64" style="text;html=1;align=center;verticalAlign=middle;whiteSpace=wrap;rounded=0;" vertex="1" parent="1">
          <mxGeometry x="370" y="470" width="160" height="35" as="geometry" />
        </mxCell>
        <mxCell id="jYvNrxx_Q23PW52PXkhU-7" value="[B@5f375618" style="rounded=0;whiteSpace=wrap;html=1;" vertex="1" parent="1">
          <mxGeometry x="285" y="510" width="120" height="60" as="geometry" />
        </mxCell>
        <mxCell id="jYvNrxx_Q23PW52PXkhU-8" value="Clave secreta" style="text;html=1;align=center;verticalAlign=middle;whiteSpace=wrap;rounded=0;" vertex="1" parent="1">
          <mxGeometry x="760" y="160" width="190" height="40" as="geometry" />
        </mxCell>
        <mxCell id="jYvNrxx_Q23PW52PXkhU-9" value="&lt;div style=&quot;color: rgb(188, 190, 196);&quot;&gt;&lt;div style=&quot;color: rgb(188, 190, 196);&quot;&gt;&lt;pre style=&quot;font-family:&#39;JetBrains Mono&#39;,monospace;font-size:9.8pt;&quot;&gt;&lt;font style=&quot;background-color: rgb(255, 255, 255);&quot; color=&quot;#000000&quot;&gt;ffffffff-b4db-0685-0000-00004335a1df&lt;/font&gt;&lt;/pre&gt;&lt;/div&gt;&lt;pre style=&quot;font-family:&#39;JetBrains Mono&#39;,monospace;font-size:9.8pt;&quot;&gt;&lt;/pre&gt;&lt;/div&gt;" style="rounded=0;whiteSpace=wrap;html=1;" vertex="1" parent="1">
          <mxGeometry x="685" y="195" width="340" height="60" as="geometry" />
        </mxCell>
        <mxCell id="jYvNrxx_Q23PW52PXkhU-10" value="Codificación UTF-8" style="text;html=1;align=center;verticalAlign=middle;whiteSpace=wrap;rounded=0;" vertex="1" parent="1">
          <mxGeometry x="930" y="280" width="160" height="30" as="geometry" />
        </mxCell>
        <mxCell id="jYvNrxx_Q23PW52PXkhU-12" value="&lt;div style=&quot;color: rgb(188, 190, 196);&quot;&gt;&lt;div style=&quot;color: rgb(188, 190, 196);&quot;&gt;&lt;pre style=&quot;font-family:&#39;JetBrains Mono&#39;,monospace;font-size:9.8pt;&quot;&gt;&lt;font style=&quot;background-color: rgb(255, 255, 255);&quot; color=&quot;#000000&quot;&gt;ffffffff-b4db-0685-0000-00004335a1df&lt;/font&gt;&lt;/pre&gt;&lt;/div&gt;&lt;pre style=&quot;font-family:&#39;JetBrains Mono&#39;,monospace;font-size:9.8pt;&quot;&gt;&lt;/pre&gt;&lt;/div&gt;" style="rounded=0;whiteSpace=wrap;html=1;" vertex="1" parent="1">
          <mxGeometry x="685" y="340" width="340" height="60" as="geometry" />
        </mxCell>
        <mxCell id="jYvNrxx_Q23PW52PXkhU-13" value="Generación hash SHA-256" style="text;html=1;align=center;verticalAlign=middle;whiteSpace=wrap;rounded=0;" vertex="1" parent="1">
          <mxGeometry x="880" y="430" width="160" height="30" as="geometry" />
        </mxCell>
        <mxCell id="jYvNrxx_Q23PW52PXkhU-14" value="" style="endArrow=classic;html=1;rounded=0;exitX=0.5;exitY=1;exitDx=0;exitDy=0;" edge="1" parent="1" source="jYvNrxx_Q23PW52PXkhU-9">
          <mxGeometry width="50" height="50" relative="1" as="geometry">
            <mxPoint x="500" y="420" as="sourcePoint" />
            <mxPoint x="855" y="330" as="targetPoint" />
          </mxGeometry>
        </mxCell>
        <mxCell id="jYvNrxx_Q23PW52PXkhU-16" value="Nueva SecretKeySpec" style="rounded=0;whiteSpace=wrap;html=1;" vertex="1" parent="1">
          <mxGeometry x="745" y="490" width="220" height="50" as="geometry" />
        </mxCell>
        <mxCell id="jYvNrxx_Q23PW52PXkhU-17" value="" style="endArrow=classic;html=1;rounded=0;exitX=0.5;exitY=1;exitDx=0;exitDy=0;" edge="1" parent="1">
          <mxGeometry width="50" height="50" relative="1" as="geometry">
            <mxPoint x="854.58" y="400" as="sourcePoint" />
            <mxPoint x="854.58" y="475" as="targetPoint" />
          </mxGeometry>
        </mxCell>
        <mxCell id="jYvNrxx_Q23PW52PXkhU-18" value="" style="endArrow=classic;html=1;rounded=0;exitX=0.5;exitY=1;exitDx=0;exitDy=0;" edge="1" parent="1">
          <mxGeometry width="50" height="50" relative="1" as="geometry">
            <mxPoint x="344.58" y="430" as="sourcePoint" />
            <mxPoint x="344.58" y="500" as="targetPoint" />
          </mxGeometry>
        </mxCell>
        <mxCell id="jYvNrxx_Q23PW52PXkhU-19" value="Algoritmo AES/CBD/PKCS5Padding" style="rounded=0;whiteSpace=wrap;html=1;" vertex="1" parent="1">
          <mxGeometry x="410" y="660" width="210" height="70" as="geometry" />
        </mxCell>
        <mxCell id="jYvNrxx_Q23PW52PXkhU-22" value="" style="endArrow=classic;html=1;rounded=0;exitX=0;exitY=0.5;exitDx=0;exitDy=0;entryX=1.003;entryY=0.578;entryDx=0;entryDy=0;entryPerimeter=0;" edge="1" parent="1" source="jYvNrxx_Q23PW52PXkhU-20" target="jYvNrxx_Q23PW52PXkhU-19">
          <mxGeometry width="50" height="50" relative="1" as="geometry">
            <mxPoint x="670" y="580" as="sourcePoint" />
            <mxPoint x="660" y="810" as="targetPoint" />
          </mxGeometry>
        </mxCell>
        <mxCell id="jYvNrxx_Q23PW52PXkhU-23" value="" style="endArrow=none;html=1;rounded=0;entryX=0.5;entryY=1;entryDx=0;entryDy=0;" edge="1" parent="1" target="jYvNrxx_Q23PW52PXkhU-16">
          <mxGeometry width="50" height="50" relative="1" as="geometry">
            <mxPoint x="720" y="700" as="sourcePoint" />
            <mxPoint x="720" y="530" as="targetPoint" />
            <Array as="points">
              <mxPoint x="720" y="600" />
              <mxPoint x="855" y="600" />
            </Array>
          </mxGeometry>
        </mxCell>
        <mxCell id="jYvNrxx_Q23PW52PXkhU-24" value="" style="group" vertex="1" connectable="0" parent="1">
          <mxGeometry x="780" y="640" width="410" height="90" as="geometry" />
        </mxCell>
        <mxCell id="jYvNrxx_Q23PW52PXkhU-20" value="&lt;div style=&quot;color: rgb(188, 190, 196);&quot;&gt;&lt;pre style=&quot;font-family:&#39;JetBrains Mono&#39;,monospace;font-size:9.8pt;&quot;&gt;&lt;font color=&quot;#000000&quot; style=&quot;background-color: rgb(255, 255, 255);&quot;&gt;{0, 0, 0, 0, 0, 0, 0, 0, 0, 0, 0, 0, 0, 0, 0, 0}&lt;/font&gt;&lt;/pre&gt;&lt;/div&gt;" style="rounded=0;whiteSpace=wrap;html=1;" vertex="1" parent="jYvNrxx_Q23PW52PXkhU-24">
          <mxGeometry y="30" width="410" height="60" as="geometry" />
        </mxCell>
        <mxCell id="jYvNrxx_Q23PW52PXkhU-21" value="Vector de inicialización" style="text;html=1;align=center;verticalAlign=middle;whiteSpace=wrap;rounded=0;" vertex="1" parent="jYvNrxx_Q23PW52PXkhU-24">
          <mxGeometry x="115" width="160" height="30" as="geometry" />
        </mxCell>
        <mxCell id="jYvNrxx_Q23PW52PXkhU-25" value="" style="endArrow=classic;html=1;rounded=0;entryX=0;entryY=0.5;entryDx=0;entryDy=0;exitX=0.5;exitY=1;exitDx=0;exitDy=0;" edge="1" parent="1" source="jYvNrxx_Q23PW52PXkhU-7" target="jYvNrxx_Q23PW52PXkhU-19">
          <mxGeometry width="50" height="50" relative="1" as="geometry">
            <mxPoint x="670" y="580" as="sourcePoint" />
            <mxPoint x="720" y="530" as="targetPoint" />
            <Array as="points">
              <mxPoint x="345" y="695" />
            </Array>
          </mxGeometry>
        </mxCell>
        <mxCell id="jYvNrxx_Q23PW52PXkhU-26" value="" style="endArrow=classic;html=1;rounded=0;exitX=0.5;exitY=1;exitDx=0;exitDy=0;" edge="1" parent="1" source="jYvNrxx_Q23PW52PXkhU-19">
          <mxGeometry width="50" height="50" relative="1" as="geometry">
            <mxPoint x="670" y="710" as="sourcePoint" />
            <mxPoint x="515" y="820" as="targetPoint" />
          </mxGeometry>
        </mxCell>
        <mxCell id="jYvNrxx_Q23PW52PXkhU-27" value="Desencriptación" style="text;html=1;align=center;verticalAlign=middle;whiteSpace=wrap;rounded=0;" vertex="1" parent="1">
          <mxGeometry x="445" y="610" width="140" height="40" as="geometry" />
        </mxCell>
        <mxCell id="jYvNrxx_Q23PW52PXkhU-28" value="&lt;font color=&quot;#97d077&quot;&gt;self_defense_shutdown&lt;/font&gt;" style="rounded=0;whiteSpace=wrap;html=1;" vertex="1" parent="1">
          <mxGeometry x="410" y="830" width="210" height="60" as="geometry" />
        </mxCell>
        <mxCell id="jYvNrxx_Q23PW52PXkhU-29" value="Valor final" style="text;html=1;align=center;verticalAlign=middle;whiteSpace=wrap;rounded=0;" vertex="1" parent="1">
          <mxGeometry x="520" y="790" width="140" height="40" as="geometry" />
        </mxCell>
      </root>
    </mxGraphModel>
  </diagram>
</mxfile>
